<?xml version='1.0' encoding='UTF-8'?>
<!DOCTYPE svg PUBLIC "-//W3C//DTD SVG 1.0//EN" "http://www.w3.org/TR/2001/REC-SVG-20010904/DTD/svg10.dtd">
<svg viewBox="0 0 608 588" xmlns="http://www.w3.org/2000/svg" xmlns:inkspace="http://www.inkscape.org/namespaces/inkscape" xmlns:xlink="http://www.w3.org/1999/xlink">
  <defs id="defs_block">
    <filter height="1.504" id="filter_blur" inkspace:collect="always" width="1.1575" x="-0.07875" y="-0.252">
      <feGaussianBlur id="feGaussianBlur3780" inkspace:collect="always" stdDeviation="4.2" />
    </filter>
  </defs>
  <title>blockdiag</title>
  <desc>diagram {
    inet [shape = cloud];
    inet -- router;

    network internal {
        address = "192.168.0.0/24";

        router [address = "192.168.0.1"];
        client01 [address = "192.168.0.101"];
        client02 [address = "192.168.0.102"];
    }

    route {
        client02 -&gt; router -&gt; inet;
        inet -&gt; router -&gt; client01 [path = "rb", color = "blue"];
    }
}
</desc>
  <path d="M 171 178 A16,8 0 0 1 187 170 A16,6 0 0 1 227 170 A16,8 0 0 1 243 178 A16,8 0 0 1 243 194 A16,20 0 0 1 219 194 A16,20 0 0 1 195 194 A16,20 0 0 1 171 194 A16,8 0 0 1 171 178" fill="rgb(0,0,0)" stroke="rgb(0,0,0)" style="filter:url(#filter_blur);opacity:0.7;fill-opacity:1" />
  <rect fill="rgb(0,0,0)" height="40" stroke="rgb(0,0,0)" style="filter:url(#filter_blur);opacity:0.7;fill-opacity:1" width="104" x="155" y="306" />
  <rect fill="rgb(0,0,0)" height="40" stroke="rgb(0,0,0)" style="filter:url(#filter_blur);opacity:0.7;fill-opacity:1" width="104" x="307" y="450" />
  <rect fill="rgb(0,0,0)" height="40" stroke="rgb(0,0,0)" style="filter:url(#filter_blur);opacity:0.7;fill-opacity:1" width="104" x="459" y="450" />
  <path d="M 131 391 L 587 391 A2,4 0 0 1 587 399 L 131 399 A2,4 0 0 1 131 391" fill="rgb(0,0,0)" style="filter:url(#filter_blur)" />
  <path d="M 128 388 L 584 388 A2,4 0 0 1 584 396 L 128 396 A2,4 0 0 1 128 388" fill="rgb(185,203,228)" stroke="rgb(0,0,0)" />
  <path d="M 584 396 A2,4 0 0 1 584 388" fill="none" stroke="rgb(0,0,0)" />
  <path d="M 128 388 L 584 388" fill="none" stroke="none" />
  <text fill="rgb(0,0,0)" font-family="sans-serif" font-size="11" font-style="normal" font-weight="normal" text-anchor="middle" textLength="40" x="100.0" y="391">internal</text>
  <text fill="rgb(0,0,0)" font-family="sans-serif" font-size="11" font-style="normal" font-weight="normal" text-anchor="middle" textLength="85" x="77.5" y="404">192.168.0.0/24</text>
  <path d="M 204 104 L 204 156" fill="none" stroke="rgb(0,0,0)" />
  <path d="M 204 196 L 204 248" fill="none" stroke="rgb(0,0,0)" />
  <path d="M 168 172 A16,8 0 0 1 184 164 A16,6 0 0 1 224 164 A16,8 0 0 1 240 172 A16,8 0 0 1 240 188 A16,20 0 0 1 216 188 A16,20 0 0 1 192 188 A16,20 0 0 1 168 188 A16,8 0 0 1 168 172" fill="rgb(255,255,255)" stroke="rgb(0,0,0)" />
  <text fill="rgb(0,0,0)" font-family="sans-serif" font-size="11" font-style="normal" font-weight="normal" text-anchor="middle" textLength="20" x="204.0" y="181">inet</text>
  <path d="M 204 248 L 204 300" fill="none" stroke="rgb(0,0,0)" />
  <path d="M 204 340 L 204 388" fill="none" stroke="rgb(0,0,0)" />
  <text fill="rgb(0,0,0)" font-family="sans-serif" font-size="11" font-style="normal" font-weight="normal" text-anchor="middle" textLength="65" x="248.5" y="367">192.168.0.1</text>
  <rect fill="rgb(255,255,255)" height="40" stroke="rgb(0,0,0)" width="104" x="152" y="300" />
  <text fill="rgb(0,0,0)" font-family="sans-serif" font-size="11" font-style="normal" font-weight="normal" text-anchor="middle" textLength="32" x="204.0" y="325">router</text>
  <path d="M 356 396 L 356 444" fill="none" stroke="rgb(0,0,0)" />
  <text fill="rgb(0,0,0)" font-family="sans-serif" font-size="11" font-style="normal" font-weight="normal" text-anchor="middle" textLength="79" x="407.5" y="423">192.168.0.101</text>
  <rect fill="rgb(255,255,255)" height="40" stroke="rgb(0,0,0)" width="104" x="304" y="444" />
  <text fill="rgb(0,0,0)" font-family="sans-serif" font-size="11" font-style="normal" font-weight="normal" text-anchor="middle" textLength="43" x="356.5" y="469">client01</text>
  <path d="M 508 396 L 508 444" fill="none" stroke="rgb(0,0,0)" />
  <text fill="rgb(0,0,0)" font-family="sans-serif" font-size="11" font-style="normal" font-weight="normal" text-anchor="middle" textLength="79" x="559.5" y="423">192.168.0.102</text>
  <rect fill="rgb(255,255,255)" height="40" stroke="rgb(0,0,0)" width="104" x="456" y="444" />
  <text fill="rgb(0,0,0)" font-family="sans-serif" font-size="11" font-style="normal" font-weight="normal" text-anchor="middle" textLength="43" x="508.5" y="469">client02</text>
  <path d="M 500 444 L 500 380" fill="none" stroke="rgb(255,0,0)" />
  <path d="M 500 380 L 196 380" fill="none" stroke="rgb(255,0,0)" />
  <path d="M 196 380 L 196 340" fill="none" stroke="rgb(255,0,0)" />
  <polygon fill="rgb(255,0,0)" points="196,341 192,348 200,348 196,341" stroke="rgb(255,0,0)" />
  <path d="M 196 300 L 196 232" fill="none" stroke="rgb(255,0,0)" />
  <path d="M 196 232 L 196 240" fill="none" stroke="rgb(255,0,0)" />
  <path d="M 196 240 L 196 196" fill="none" stroke="rgb(255,0,0)" />
  <polygon fill="rgb(255,0,0)" points="196,197 192,204 200,204 196,197" stroke="rgb(255,0,0)" />
  <path d="M 212 196 L 212 264" fill="none" stroke="rgb(0,0,255)" />
  <path d="M 212 264 L 212 256" fill="none" stroke="rgb(0,0,255)" />
  <path d="M 212 256 L 212 300" fill="none" stroke="rgb(0,0,255)" />
  <polygon fill="rgb(0,0,255)" points="212,299 208,292 216,292 212,299" stroke="rgb(0,0,255)" />
  <path d="M 212 340 L 212 404" fill="none" stroke="rgb(0,0,255)" />
  <path d="M 212 404 L 364 404" fill="none" stroke="rgb(0,0,255)" />
  <path d="M 364 404 L 364 444" fill="none" stroke="rgb(0,0,255)" />
  <polygon fill="rgb(0,0,255)" points="364,443 360,436 368,436 364,443" stroke="rgb(0,0,255)" />
</svg>
